Normalized EMG Linear Envelopes
nRows=65
nColumns=17

endheader
time	        VM	        VL	        RF	       GRA	        TA	   ADDLONG	   SEMIMEM	      BFLH	        GM	        GL	       TFL	   GLUTMAX	   GLUTMED	      PIRI	    OBTINT	        QF	
2.605	  0.636137	  0.404017	  0.067792	  0.307322	  0.308072	  0.091943	  0.521725	  0.759308	  0.416907	  0.181776	  0.037113	  0.437165	  0.072073	  0.334298	  0.523538	  1.093440	
2.6055	  0.643428	  0.409863	  0.068877	  0.306601	  0.305479	  0.091997	  0.520755	  0.760761	  0.417885	  0.182596	  0.037374	  0.441612	  0.072958	  0.337096	  0.528805	  1.101498	
2.606	  0.650733	  0.415734	  0.069969	  0.305891	  0.302897	  0.092044	  0.519814	  0.762204	  0.418871	  0.183436	  0.037640	  0.446099	  0.073880	  0.339914	  0.534096	  1.109528	
2.6065	  0.658049	  0.421628	  0.071065	  0.305189	  0.300328	  0.092084	  0.518898	  0.763635	  0.419864	  0.184297	  0.037912	  0.450624	  0.074840	  0.342749	  0.539409	  1.117527	
2.607	  0.665376	  0.427544	  0.072168	  0.304497	  0.297773	  0.092119	  0.518009	  0.765055	  0.420863	  0.185178	  0.038189	  0.455184	  0.075838	  0.345602	  0.544742	  1.125492	
2.6075	  0.672710	  0.433481	  0.073275	  0.303815	  0.295234	  0.092148	  0.517143	  0.766463	  0.421870	  0.186079	  0.038472	  0.459778	  0.076873	  0.348472	  0.550093	  1.133419	
2.608	  0.680051	  0.439436	  0.074387	  0.303142	  0.292711	  0.092171	  0.516299	  0.767859	  0.422883	  0.187002	  0.038760	  0.464404	  0.077947	  0.351357	  0.555461	  1.141304	
2.6085	  0.687397	  0.445409	  0.075503	  0.302480	  0.290207	  0.092189	  0.515477	  0.769243	  0.423902	  0.187945	  0.039053	  0.469059	  0.079059	  0.354259	  0.560843	  1.149144	
2.609	  0.694746	  0.451396	  0.076623	  0.301827	  0.287721	  0.092202	  0.514674	  0.770613	  0.424927	  0.188910	  0.039353	  0.473742	  0.080210	  0.357174	  0.566237	  1.156935	
2.6095	  0.702095	  0.457398	  0.077747	  0.301185	  0.285255	  0.092209	  0.513889	  0.771969	  0.425958	  0.189897	  0.039658	  0.478452	  0.081400	  0.360104	  0.571642	  1.164673	
2.61	  0.709443	  0.463412	  0.078874	  0.300554	  0.282810	  0.092212	  0.513120	  0.773310	  0.426993	  0.190905	  0.039968	  0.483186	  0.082630	  0.363048	  0.577055	  1.172355	
2.6105	  0.716789	  0.469437	  0.080005	  0.299933	  0.280387	  0.092210	  0.512365	  0.774637	  0.428034	  0.191934	  0.040285	  0.487943	  0.083898	  0.366004	  0.582476	  1.179978	
2.611	  0.724130	  0.475471	  0.081138	  0.299323	  0.277987	  0.092204	  0.511623	  0.775947	  0.429079	  0.192984	  0.040607	  0.492723	  0.085207	  0.368972	  0.587902	  1.187540	
2.6115	  0.731464	  0.481512	  0.082273	  0.298724	  0.275610	  0.092195	  0.510893	  0.777241	  0.430128	  0.194056	  0.040934	  0.497522	  0.086555	  0.371951	  0.593331	  1.195037	
2.612	  0.738790	  0.487559	  0.083410	  0.298137	  0.273258	  0.092182	  0.510173	  0.778518	  0.431182	  0.195148	  0.041267	  0.502341	  0.087943	  0.374940	  0.598762	  1.202466	
2.6125	  0.746106	  0.493610	  0.084549	  0.297562	  0.270932	  0.092167	  0.509462	  0.779778	  0.432241	  0.196262	  0.041605	  0.507177	  0.089372	  0.377940	  0.604194	  1.209827	
2.613	  0.753409	  0.499663	  0.085689	  0.297000	  0.268631	  0.092149	  0.508758	  0.781019	  0.433304	  0.197396	  0.041949	  0.512028	  0.090842	  0.380948	  0.609625	  1.217117	
2.6135	  0.760696	  0.505717	  0.086829	  0.296452	  0.266357	  0.092129	  0.508061	  0.782243	  0.434372	  0.198550	  0.042298	  0.516895	  0.092352	  0.383964	  0.615054	  1.224336	
2.614	  0.767965	  0.511769	  0.087970	  0.295917	  0.264110	  0.092107	  0.507369	  0.783448	  0.435444	  0.199724	  0.042653	  0.521774	  0.093904	  0.386988	  0.620480	  1.231481	
2.6145	  0.775215	  0.517817	  0.089111	  0.295396	  0.261891	  0.092085	  0.506683	  0.784634	  0.436522	  0.200918	  0.043013	  0.526664	  0.095497	  0.390017	  0.625900	  1.238552	
2.615	  0.782441	  0.523861	  0.090251	  0.294889	  0.259701	  0.092061	  0.506003	  0.785801	  0.437603	  0.202131	  0.043377	  0.531564	  0.097130	  0.393051	  0.631314	  1.245547	
2.6155	  0.789642	  0.529898	  0.091390	  0.294396	  0.257539	  0.092037	  0.505329	  0.786947	  0.438690	  0.203364	  0.043747	  0.536471	  0.098806	  0.396089	  0.636720	  1.252465	
2.616	  0.796814	  0.535927	  0.092528	  0.293918	  0.255406	  0.092012	  0.504661	  0.788073	  0.439780	  0.204615	  0.044121	  0.541383	  0.100522	  0.399130	  0.642116	  1.259303	
2.6165	  0.803956	  0.541946	  0.093663	  0.293455	  0.253302	  0.091987	  0.504000	  0.789178	  0.440875	  0.205884	  0.044501	  0.546298	  0.102281	  0.402172	  0.647501	  1.266059	
2.617	  0.811065	  0.547955	  0.094796	  0.293006	  0.251228	  0.091963	  0.503346	  0.790260	  0.441974	  0.207172	  0.044885	  0.551215	  0.104081	  0.405216	  0.652875	  1.272733	
2.6175	  0.818138	  0.553950	  0.095926	  0.292572	  0.249184	  0.091939	  0.502700	  0.791320	  0.443077	  0.208477	  0.045273	  0.556130	  0.105923	  0.408260	  0.658235	  1.279322	
2.618	  0.825174	  0.559931	  0.097052	  0.292152	  0.247171	  0.091916	  0.502062	  0.792356	  0.444185	  0.209800	  0.045666	  0.561041	  0.107806	  0.411303	  0.663583	  1.285825	
2.6185	  0.832168	  0.565896	  0.098174	  0.291747	  0.245188	  0.091893	  0.501432	  0.793368	  0.445298	  0.211141	  0.046063	  0.565946	  0.109732	  0.414345	  0.668915	  1.292241	
2.619	  0.839118	  0.571842	  0.099291	  0.291357	  0.243236	  0.091872	  0.500811	  0.794356	  0.446415	  0.212500	  0.046463	  0.570843	  0.111699	  0.417383	  0.674233	  1.298570	
2.6195	  0.846020	  0.577767	  0.100403	  0.290981	  0.241315	  0.091852	  0.500200	  0.795320	  0.447537	  0.213877	  0.046868	  0.575728	  0.113708	  0.420419	  0.679534	  1.304809	
2.62	  0.852873	  0.583670	  0.101508	  0.290620	  0.239426	  0.091833	  0.499600	  0.796258	  0.448665	  0.215271	  0.047277	  0.580599	  0.115759	  0.423451	  0.684818	  1.310959	
2.6205	  0.859670	  0.589548	  0.102607	  0.290273	  0.237568	  0.091817	  0.499012	  0.797170	  0.449799	  0.216683	  0.047689	  0.585454	  0.117852	  0.426477	  0.690083	  1.317020	
2.621	  0.866410	  0.595399	  0.103699	  0.289941	  0.235743	  0.091802	  0.498436	  0.798055	  0.450940	  0.218112	  0.048104	  0.590289	  0.119986	  0.429499	  0.695328	  1.322989	
2.6215	  0.873087	  0.601220	  0.104783	  0.289624	  0.233951	  0.091789	  0.497875	  0.798912	  0.452088	  0.219559	  0.048522	  0.595102	  0.122163	  0.432515	  0.700551	  1.328868	
2.622	  0.879699	  0.607009	  0.105859	  0.289322	  0.232191	  0.091778	  0.497329	  0.799740	  0.453243	  0.221024	  0.048943	  0.599890	  0.124380	  0.435524	  0.705751	  1.334654	
2.6225	  0.886239	  0.612764	  0.106926	  0.289034	  0.230464	  0.091770	  0.496799	  0.800538	  0.454406	  0.222506	  0.049367	  0.604649	  0.126639	  0.438527	  0.710927	  1.340346	
2.623	  0.892704	  0.618482	  0.107984	  0.288761	  0.228770	  0.091765	  0.496287	  0.801303	  0.455577	  0.224006	  0.049793	  0.609379	  0.128940	  0.441522	  0.716076	  1.345944	
2.6235	  0.899090	  0.624161	  0.109032	  0.288502	  0.227110	  0.091762	  0.495793	  0.802034	  0.456756	  0.225523	  0.050222	  0.614076	  0.131281	  0.444511	  0.721197	  1.351447	
2.624	  0.905392	  0.629799	  0.110070	  0.288257	  0.225483	  0.091762	  0.495317	  0.802728	  0.457945	  0.227058	  0.050652	  0.618739	  0.133664	  0.447493	  0.726289	  1.356853	
2.6245	  0.911606	  0.635393	  0.111097	  0.288025	  0.223889	  0.091764	  0.494862	  0.803385	  0.459141	  0.228612	  0.051084	  0.623366	  0.136087	  0.450469	  0.731352	  1.362161	
2.625	  0.917728	  0.640939	  0.112113	  0.287807	  0.222329	  0.091770	  0.494426	  0.804000	  0.460347	  0.230183	  0.051518	  0.627955	  0.138551	  0.453440	  0.736387	  1.367370	
2.6255	  0.923754	  0.646437	  0.113116	  0.287601	  0.220802	  0.091779	  0.494010	  0.804572	  0.461560	  0.231774	  0.051953	  0.632505	  0.141055	  0.456407	  0.741395	  1.372477	
2.626	  0.929681	  0.651884	  0.114108	  0.287408	  0.219308	  0.091790	  0.493615	  0.805097	  0.462783	  0.233383	  0.052389	  0.637014	  0.143600	  0.459370	  0.746378	  1.377482	
2.6265	  0.935507	  0.657278	  0.115086	  0.287227	  0.217846	  0.091805	  0.493240	  0.805574	  0.464013	  0.235011	  0.052826	  0.641480	  0.146186	  0.462330	  0.751338	  1.382383	
2.627	  0.941230	  0.662617	  0.116050	  0.287057	  0.216418	  0.091823	  0.492885	  0.805998	  0.465250	  0.236658	  0.053263	  0.645903	  0.148812	  0.465290	  0.756276	  1.387178	
2.6275	  0.946849	  0.667901	  0.117000	  0.286898	  0.215022	  0.091844	  0.492551	  0.806366	  0.466495	  0.238324	  0.053700	  0.650281	  0.151478	  0.468249	  0.761194	  1.391868	
2.628	  0.952362	  0.673127	  0.117936	  0.286750	  0.213657	  0.091868	  0.492236	  0.806675	  0.467745	  0.240010	  0.054138	  0.654612	  0.154184	  0.471208	  0.766094	  1.396452	
2.6285	  0.957768	  0.678293	  0.118856	  0.286613	  0.212324	  0.091895	  0.491940	  0.806922	  0.469001	  0.241715	  0.054575	  0.658895	  0.156930	  0.474170	  0.770979	  1.400927	
2.629	  0.963066	  0.683399	  0.119761	  0.286486	  0.211022	  0.091925	  0.491663	  0.807103	  0.470261	  0.243439	  0.055011	  0.663127	  0.159716	  0.477134	  0.775848	  1.405296	
2.6295	  0.968254	  0.688442	  0.120649	  0.286369	  0.209751	  0.091958	  0.491403	  0.807214	  0.471525	  0.245183	  0.055446	  0.667308	  0.162541	  0.480102	  0.780705	  1.409558	
2.63	  0.973333	  0.693420	  0.121520	  0.286262	  0.208510	  0.091994	  0.491161	  0.807254	  0.472792	  0.246945	  0.055880	  0.671435	  0.165404	  0.483075	  0.785549	  1.413716	
2.6305	  0.978302	  0.698330	  0.122374	  0.286165	  0.207298	  0.092032	  0.490934	  0.807217	  0.474060	  0.248727	  0.056313	  0.675506	  0.168307	  0.486053	  0.790383	  1.417770	
2.631	  0.983160	  0.703172	  0.123210	  0.286077	  0.206116	  0.092074	  0.490722	  0.807102	  0.475330	  0.250527	  0.056744	  0.679520	  0.171248	  0.489037	  0.795207	  1.421722	
2.6315	  0.987908	  0.707942	  0.124028	  0.285998	  0.204963	  0.092118	  0.490524	  0.806905	  0.476600	  0.252345	  0.057173	  0.683473	  0.174226	  0.492027	  0.800024	  1.425574	
2.632	  0.992546	  0.712639	  0.124828	  0.285927	  0.203839	  0.092164	  0.490337	  0.806622	  0.477871	  0.254182	  0.057601	  0.687365	  0.177242	  0.495025	  0.804834	  1.429328	
2.6325	  0.997076	  0.717261	  0.125609	  0.285865	  0.202742	  0.092212	  0.490161	  0.806249	  0.479142	  0.256037	  0.058026	  0.691194	  0.180295	  0.498030	  0.809640	  1.432986	
2.633	  1.001498	  0.721806	  0.126371	  0.285810	  0.201674	  0.092263	  0.489995	  0.805784	  0.480412	  0.257910	  0.058449	  0.694957	  0.183385	  0.501044	  0.814443	  1.436548	
2.6335	  1.005815	  0.726273	  0.127113	  0.285764	  0.200632	  0.092316	  0.489835	  0.805223	  0.481681	  0.259801	  0.058869	  0.698654	  0.186511	  0.504067	  0.819246	  1.440018	
2.634	  1.010026	  0.730660	  0.127837	  0.285725	  0.199617	  0.092371	  0.489681	  0.804562	  0.482950	  0.261710	  0.059286	  0.702282	  0.189673	  0.507098	  0.824050	  1.443395	
2.6345	  1.014134	  0.734966	  0.128540	  0.285693	  0.198628	  0.092429	  0.489530	  0.803799	  0.484218	  0.263637	  0.059700	  0.705842	  0.192871	  0.510139	  0.828859	  1.446681	
2.635	  1.018139	  0.739191	  0.129225	  0.285668	  0.197665	  0.092488	  0.489381	  0.802930	  0.485486	  0.265583	  0.060110	  0.709331	  0.196105	  0.513189	  0.833673	  1.449877	
2.6355	  1.022043	  0.743334	  0.129889	  0.285651	  0.196727	  0.092549	  0.489232	  0.801954	  0.486753	  0.267546	  0.060518	  0.712749	  0.199375	  0.516250	  0.838496	  1.452981	
2.636	  1.025847	  0.747395	  0.130533	  0.285641	  0.195814	  0.092612	  0.489082	  0.800868	  0.488020	  0.269528	  0.060921	  0.716094	  0.202680	  0.519319	  0.843330	  1.455994	
2.6365	  1.029551	  0.751374	  0.131158	  0.285638	  0.194924	  0.092676	  0.488927	  0.799670	  0.489287	  0.271527	  0.061321	  0.719364	  0.206021	  0.522399	  0.848176	  1.458915	
2.637	  1.033156	  0.755269	  0.131763	  0.285641	  0.194058	  0.092743	  0.488766	  0.798357	  0.490554	  0.273544	  0.061718	  0.722559	  0.209396	  0.525487	  0.853037	  1.461743	
